<svg xmlns="http://www.w3.org/2000/svg" xmlns:xlink="http://www.w3.org/1999/xlink" aria-hidden="true" focusable="false"
     role="img" class="iconify iconify--carbon" width="30px" height="30px" preserveAspectRatio="xMidYMid meet"
     viewBox="0 0 32 32" style="transform: rotate(360deg);">
  <path d="M29 22h-5a2.003 2.003 0 0 1-2-2v-6a2.002 2.002 0 0 1 2-2h5v2h-5v6h5z" fill="#000000"></path>
  <path d="M18 12h-4V8h-2v14h6a2.003 2.003 0 0 0 2-2v-6a2.002 2.002 0 0 0-2-2zm-4 8v-6h4v6z" fill="#000000"></path>
  <path d="M8 12H3v2h5v2H4a2 2 0 0 0-2 2v2a2 2 0 0 0 2 2h6v-8a2.002 2.002 0 0 0-2-2zm0 8H4v-2h4z"
        fill="#000000"></path>
</svg>
